<svg xmlns="http://www.w3.org/2000/svg" viewBox="0 0 313.8 64.76"><defs><style>.cls-1{fill:#ce0e2d;}</style></defs><g id="Livello_2" data-name="Livello 2"><g id="Livello_1-2" data-name="Livello 1"><path class="cls-1" d="M65.86,51.15H58L43.88,28a1.73,1.73,0,0,1,.89-2.26,1.71,1.71,0,0,1,2.26.89L60,48H72.8l-1.88,3.17Zm-4.54-9.07L51.09,25.59a1.72,1.72,0,0,1,3.15-1.37l9.27,14.71H78.84L77,42.06Zm3.52-8.58L58.4,23.4A1.72,1.72,0,1,1,61.55,22L67,30.54H84.56l-1.87,3ZM35,40.25l-24.28-39,4.19.06L38.11,38.89A1.72,1.72,0,1,1,35,40.25M18.85,1.36l4.19,0L44.83,36.74a1.72,1.72,0,1,1-3.15,1.36Zm-17-.2L6,1.21,30.74,41.15a1.72,1.72,0,1,1-3.15,1.36Zm68,33.29H83l3.3-4.86H69.75a1.28,1.28,0,0,1,0-.26,33.46,33.46,0,0,0-2.49-9.25,32,32,0,0,0-42-16.63L23.39.28,17,.16l3.55,5.78-1.24.84L15.21.13,8.64.15,15.1,10.41l-1.29,1.41L6.44,0H0L10.24,16.84a32,32,0,0,0,53,35.57l.28-.34h7.84l3.19-5H66.58a29.69,29.69,0,0,0,1.58-4h9.21l3.14-5H69.45s.22-1.59.38-3.57"/><path class="cls-1" d="M98.81,32.38c0-9,7-15.64,16.38-15.64s16.38,6.6,16.38,15.64S124.62,48,115.19,48,98.81,41.37,98.81,32.38m27.07,0a10.69,10.69,0,1,0-21.37,0,10.69,10.69,0,1,0,21.37,0"/><polygon class="cls-1" points="143.22 21.91 143.22 31.16 157.9 31.16 157.9 35.94 143.22 35.94 143.22 47.58 137.57 47.58 137.57 17.17 159.77 17.17 159.77 21.91 143.22 21.91"/><polygon class="cls-1" points="170.9 21.91 170.9 31.16 185.58 31.16 185.58 35.94 170.9 35.94 170.9 47.58 165.25 47.58 165.25 17.17 187.45 17.17 187.45 21.91 170.9 21.91"/><path class="cls-1" d="M190.4,32.38c0-9.08,7-15.64,16.3-15.64,5,0,9.21,1.78,12,5.08l-3.65,3.43A10.68,10.68,0,0,0,207,21.69c-6.3,0-10.86,4.43-10.86,10.69S200.66,43.07,207,43.07a10.59,10.59,0,0,0,8.12-3.61l3.65,3.47c-2.82,3.31-7.08,5.09-12.08,5.09-9.29,0-16.25-6.56-16.25-15.64"/><path class="cls-1" d="M243.24,40.55H228l-3,7h-5.82L232.9,17.17h5.56l13.73,30.41h-5.91Zm-1.87-4.44-5.74-13.29-5.69,13.29Z"/><path class="cls-1" d="M276,47.58l-6.21-8.9a11.43,11.43,0,0,1-1.17,0H261.7v8.86h-5.64V17.17h12.51c8,0,12.94,4.09,12.94,10.82a9.71,9.71,0,0,1-6.47,9.6l7,10ZM268.31,22H261.7V34.07h6.61c4.95,0,7.51-2.26,7.51-6.08s-2.56-6-7.51-6"/><path class="cls-1" d="M307.71,47.58l-6.21-8.9a11.43,11.43,0,0,1-1.17,0h-6.87v8.86h-5.64V17.17h12.51c8,0,12.94,4.09,12.94,10.82a9.71,9.71,0,0,1-6.47,9.6l7,10ZM300.07,22h-6.61V34.07h6.61c4.95,0,7.51-2.26,7.51-6.08s-2.56-6-7.51-6"/></g></g></svg>